<?xml version="1.0" encoding="UTF-8" standalone="no"?>
<!-- Created with Inkscape (http://www.inkscape.org/) -->

<svg
   xmlns:dc="http://purl.org/dc/elements/1.1/"
   xmlns:cc="http://creativecommons.org/ns#"
   xmlns:rdf="http://www.w3.org/1999/02/22-rdf-syntax-ns#"
   xmlns:svg="http://www.w3.org/2000/svg"
   xmlns="http://www.w3.org/2000/svg"
   xmlns:xlink="http://www.w3.org/1999/xlink"
   xmlns:sodipodi="http://sodipodi.sourceforge.net/DTD/sodipodi-0.dtd"
   xmlns:inkscape="http://www.inkscape.org/namespaces/inkscape"
   version="1.0"
   width="96"
   height="96"
   id="svg2408"
   style="display:inline"
   inkscape:version="0.48.3.1 r9886"
   sodipodi:docname="empty.svg">
  <sodipodi:namedview
     pagecolor="#ffffff"
     bordercolor="#666666"
     borderopacity="1"
     objecttolerance="10"
     gridtolerance="10"
     guidetolerance="10"
     inkscape:pageopacity="0"
     inkscape:pageshadow="2"
     inkscape:window-width="1680"
     inkscape:window-height="1000"
     id="namedview58"
     showgrid="true"
     inkscape:zoom="4"
     inkscape:cx="78.604558"
     inkscape:cy="23.485758"
     inkscape:window-x="0"
     inkscape:window-y="25"
     inkscape:window-maximized="1"
     inkscape:current-layer="g3489">
    <inkscape:grid
       type="xygrid"
       id="grid3035"
       empspacing="6"
       visible="true"
       enabled="true"
       snapvisiblegridlinesonly="true" />
  </sodipodi:namedview>
  <defs
     id="defs2410">
    <linearGradient
       x1="45.447727"
       y1="92.539597"
       x2="45.447727"
       y2="7.0165396"
       id="ButtonShadow"
       gradientUnits="userSpaceOnUse"
       gradientTransform="scale(1.0058652,0.994169)">
      <stop
         id="stop3750"
         style="stop-color:#000000;stop-opacity:1"
         offset="0" />
      <stop
         id="stop3752"
         style="stop-color:#000000;stop-opacity:0.58823532"
         offset="1" />
    </linearGradient>
    <linearGradient
       id="linearGradient3700">
      <stop
         id="stop3702"
         style="stop-color:#e6e6e6;stop-opacity:1"
         offset="0" />
      <stop
         id="stop3704"
         style="stop-color:#f5f5f5;stop-opacity:1"
         offset="1" />
    </linearGradient>
    <linearGradient
       x1="48"
       y1="90"
       x2="48"
       y2="5.9877172"
       id="linearGradient3706"
       xlink:href="#linearGradient3700"
       gradientUnits="userSpaceOnUse" />
    <filter
       color-interpolation-filters="sRGB"
       id="filter3174">
      <feGaussianBlur
         id="feGaussianBlur3176"
         stdDeviation="1.71" />
    </filter>
    <linearGradient
       x1="45.447727"
       y1="92.539597"
       x2="45.447727"
       y2="7.0165396"
       id="ButtonShadow-0"
       gradientUnits="userSpaceOnUse"
       gradientTransform="matrix(1.0058652,0,0,0.994169,100,0)">
      <stop
         id="stop3750-8"
         style="stop-color:#000000;stop-opacity:1"
         offset="0" />
      <stop
         id="stop3752-5"
         style="stop-color:#000000;stop-opacity:0.58823532"
         offset="1" />
    </linearGradient>
    <linearGradient
       x1="32.251034"
       y1="6.1317081"
       x2="32.251034"
       y2="90.238609"
       id="linearGradient3780"
       xlink:href="#ButtonShadow-0"
       gradientUnits="userSpaceOnUse"
       gradientTransform="matrix(1.0238095,0,0,1.0119048,-1.1428571,-98.071429)" />
    <linearGradient
       x1="32.251034"
       y1="6.1317081"
       x2="32.251034"
       y2="90.238609"
       id="linearGradient3772"
       xlink:href="#ButtonShadow-0"
       gradientUnits="userSpaceOnUse"
       gradientTransform="matrix(1.0238095,0,0,1.0119048,-1.1428571,-98.071429)" />
    <linearGradient
       x1="32.251034"
       y1="6.1317081"
       x2="32.251034"
       y2="90.238609"
       id="linearGradient3725"
       xlink:href="#ButtonShadow-0"
       gradientUnits="userSpaceOnUse"
       gradientTransform="matrix(1.0238095,0,0,1.0119048,-1.1428571,-98.071429)" />
    <linearGradient
       x1="32.251034"
       y1="6.1317081"
       x2="32.251034"
       y2="90.238609"
       id="linearGradient3721"
       xlink:href="#ButtonShadow-0"
       gradientUnits="userSpaceOnUse"
       gradientTransform="translate(0,-97)" />
    <linearGradient
       x1="32.251034"
       y1="6.1317081"
       x2="32.251034"
       y2="90.238609"
       id="linearGradient3760"
       xlink:href="#ButtonShadow-0"
       gradientUnits="userSpaceOnUse"
       gradientTransform="matrix(1.0238095,0,0,1.0119048,-1.1428571,-98.071429)" />
    <linearGradient
       id="linearGradient3737-1">
      <stop
         id="stop3739-9"
         style="stop-color:#ffffff;stop-opacity:1"
         offset="0" />
      <stop
         id="stop3741-3"
         style="stop-color:#ffffff;stop-opacity:0"
         offset="1" />
    </linearGradient>
    <radialGradient
       cx="48"
       cy="90.171875"
       r="42"
       fx="48"
       fy="90.171875"
       id="radialGradient2886"
       xlink:href="#linearGradient3737-0"
       gradientUnits="userSpaceOnUse"
       gradientTransform="matrix(1.1573129,0,0,0.99590774,-7.551021,0.1971319)" />
    <linearGradient
       id="linearGradient3737-0">
      <stop
         id="stop3739-6"
         style="stop-color:#ffffff;stop-opacity:1"
         offset="0" />
      <stop
         id="stop3741-0"
         style="stop-color:#ffffff;stop-opacity:0"
         offset="1" />
    </linearGradient>
    <linearGradient
       x1="36.357143"
       y1="6"
       x2="36.357143"
       y2="63.893143"
       id="linearGradient3923"
       xlink:href="#linearGradient3737-1"
       gradientUnits="userSpaceOnUse" />
    <linearGradient
       id="linearGradient3737-9">
      <stop
         id="stop3739-2"
         style="stop-color:#ffffff;stop-opacity:1"
         offset="0" />
      <stop
         id="stop3741-1"
         style="stop-color:#ffffff;stop-opacity:0"
         offset="1" />
    </linearGradient>
    <clipPath
       id="clipPath3613">
      <rect
         width="84"
         height="84"
         rx="6"
         ry="6"
         x="6"
         y="6"
         id="rect3615"
         style="fill:#ffffff;fill-opacity:1;fill-rule:nonzero;stroke:none" />
    </clipPath>
    <filter
       x="-0.192"
       y="-0.192"
       width="1.3839999"
       height="1.3839999"
       color-interpolation-filters="sRGB"
       id="filter3794">
      <feGaussianBlur
         id="feGaussianBlur3796"
         stdDeviation="5.28" />
    </filter>
    <linearGradient
       x1="48"
       y1="20.220806"
       x2="48"
       y2="138.66119"
       id="linearGradient2890"
       xlink:href="#linearGradient3737-9"
       gradientUnits="userSpaceOnUse" />
    <linearGradient
       id="linearGradient3739">
      <stop
         id="stop3742"
         style="stop-color:#ffffff;stop-opacity:1"
         offset="0" />
      <stop
         id="stop3744"
         style="stop-color:#ffffff;stop-opacity:0"
         offset="1" />
    </linearGradient>
    <linearGradient
       id="linearGradient3731">
      <stop
         id="stop3733"
         style="stop-color:#dcdcdc;stop-opacity:1"
         offset="0" />
      <stop
         id="stop3757"
         style="stop-color:#ebebeb;stop-opacity:1"
         offset="0.30654153" />
      <stop
         id="stop3737"
         style="stop-color:#ffffff;stop-opacity:1"
         offset="0.70706075" />
      <stop
         id="stop3759"
         style="stop-color:#fafafa;stop-opacity:1"
         offset="0.84501493" />
      <stop
         id="stop3735"
         style="stop-color:#f0f0f0;stop-opacity:1"
         offset="1" />
    </linearGradient>
    <linearGradient
       id="linearGradient2881">
      <stop
         id="stop2883"
         style="stop-color:#3e5e8e;stop-opacity:1"
         offset="0" />
      <stop
         id="stop2885"
         style="stop-color:#89a4cb;stop-opacity:1"
         offset="1" />
    </linearGradient>
    <linearGradient
       id="linearGradient3697">
      <stop
         id="stop3699"
         style="stop-color:#dcdcdc;stop-opacity:1"
         offset="0" />
      <stop
         id="stop3701"
         style="stop-color:#f0f0f0;stop-opacity:1"
         offset="1" />
    </linearGradient>
    <linearGradient
       id="linearGradient3614">
      <stop
         id="stop3616"
         style="stop-color:#65a31b;stop-opacity:1"
         offset="0" />
      <stop
         id="stop3618"
         style="stop-color:#a0de42;stop-opacity:1"
         offset="1" />
    </linearGradient>
    <linearGradient
       x1="45.447727"
       y1="92.539597"
       x2="45.447727"
       y2="7.0165396"
       id="ButtonShadow-5"
       gradientUnits="userSpaceOnUse"
       gradientTransform="scale(1.0058652,0.994169)">
      <stop
         id="stop3750-3"
         style="stop-color:#000000;stop-opacity:1"
         offset="0" />
      <stop
         id="stop3752-7"
         style="stop-color:#000000;stop-opacity:0.58823532"
         offset="1" />
    </linearGradient>
    <linearGradient
       id="linearGradient3737">
      <stop
         id="stop3739"
         style="stop-color:#ffffff;stop-opacity:1"
         offset="0" />
      <stop
         id="stop3741"
         style="stop-color:#ffffff;stop-opacity:0"
         offset="1" />
    </linearGradient>
    <filter
       color-interpolation-filters="sRGB"
       id="filter3174-9">
      <feGaussianBlur
         id="feGaussianBlur3176-7"
         stdDeviation="1.71" />
    </filter>
    <linearGradient
       x1="36.357143"
       y1="6"
       x2="36.357143"
       y2="63.893143"
       id="linearGradient3188"
       xlink:href="#linearGradient3737"
       gradientUnits="userSpaceOnUse" />
    <filter
       x="-0.192"
       y="-0.192"
       width="1.3839999"
       height="1.3839999"
       color-interpolation-filters="sRGB"
       id="filter3794-8">
      <feGaussianBlur
         id="feGaussianBlur3796-2"
         stdDeviation="5.28" />
    </filter>
    <linearGradient
       x1="48"
       y1="20.220806"
       x2="48"
       y2="138.66119"
       id="linearGradient3613"
       xlink:href="#linearGradient3737"
       gradientUnits="userSpaceOnUse" />
    <radialGradient
       cx="48"
       cy="90.171875"
       r="42"
       fx="48"
       fy="90.171875"
       id="radialGradient3619"
       xlink:href="#linearGradient3737"
       gradientUnits="userSpaceOnUse"
       gradientTransform="matrix(1.1573129,0,0,0.99590774,-7.5510206,0.19713193)" />
    <clipPath
       id="clipPath3613-2">
      <rect
         width="84"
         height="84"
         rx="6"
         ry="6"
         x="6"
         y="6"
         id="rect3615-1"
         style="fill:#ffffff;fill-opacity:1;fill-rule:nonzero;stroke:none" />
    </clipPath>
    <linearGradient
       x1="48"
       y1="90"
       x2="48"
       y2="5.9877172"
       id="linearGradient3617"
       xlink:href="#linearGradient3614"
       gradientUnits="userSpaceOnUse" />
    <linearGradient
       x1="71.671646"
       y1="62.025059"
       x2="71.671646"
       y2="26.413651"
       id="linearGradient3661"
       xlink:href="#linearGradient3697"
       gradientUnits="userSpaceOnUse"
       gradientTransform="translate(-125,0.65261)" />
    <linearGradient
       x1="48.082497"
       y1="75.561722"
       x2="46.654823"
       y2="16.972879"
       id="linearGradient3664"
       xlink:href="#linearGradient3731"
       gradientUnits="userSpaceOnUse"
       gradientTransform="translate(0,1)" />
    <linearGradient
       x1="15"
       y1="48.272732"
       x2="81"
       y2="48.272732"
       id="linearGradient3746"
       xlink:href="#linearGradient3739"
       gradientUnits="userSpaceOnUse" />
    <linearGradient
       x1="48"
       y1="90"
       x2="48"
       y2="5.9877172"
       id="linearGradient3662"
       xlink:href="#linearGradient2881"
       gradientUnits="userSpaceOnUse"
       gradientTransform="translate(100,0)" />
    <linearGradient
       x1="45.447727"
       y1="92.539597"
       x2="45.447727"
       y2="7.0165396"
       id="ButtonShadow-0-7"
       gradientUnits="userSpaceOnUse"
       gradientTransform="matrix(1.0058652,0,0,0.994169,100,0)">
      <stop
         id="stop3750-8-0"
         style="stop-color:#000000;stop-opacity:1"
         offset="0" />
      <stop
         id="stop3752-5-1"
         style="stop-color:#000000;stop-opacity:0.58823532"
         offset="1" />
    </linearGradient>
    <linearGradient
       x1="32.251034"
       y1="6.1317081"
       x2="32.251034"
       y2="90.238609"
       id="linearGradient3780-4"
       xlink:href="#ButtonShadow-0-7"
       gradientUnits="userSpaceOnUse"
       gradientTransform="matrix(1.0238095,0,0,1.0119048,-1.1428571,-98.071429)" />
    <linearGradient
       x1="32.251034"
       y1="6.1317081"
       x2="32.251034"
       y2="90.238609"
       id="linearGradient3772-5"
       xlink:href="#ButtonShadow-0-7"
       gradientUnits="userSpaceOnUse"
       gradientTransform="matrix(1.0238095,0,0,1.0119048,-1.1428571,-98.071429)" />
    <linearGradient
       x1="32.251034"
       y1="6.1317081"
       x2="32.251034"
       y2="90.238609"
       id="linearGradient3725-7"
       xlink:href="#ButtonShadow-0-7"
       gradientUnits="userSpaceOnUse"
       gradientTransform="matrix(1.0238095,0,0,1.0119048,-1.1428571,-98.071429)" />
    <linearGradient
       x1="32.251034"
       y1="6.1317081"
       x2="32.251034"
       y2="90.238609"
       id="linearGradient3721-8"
       xlink:href="#ButtonShadow-0-7"
       gradientUnits="userSpaceOnUse"
       gradientTransform="translate(0,-97)" />
    <linearGradient
       x1="32.251034"
       y1="6.1317081"
       x2="32.251034"
       y2="90.238609"
       id="linearGradient2918"
       xlink:href="#ButtonShadow-0-7"
       gradientUnits="userSpaceOnUse"
       gradientTransform="matrix(1.0238095,0,0,1.0119048,-1.1428571,-98.071429)" />
    <radialGradient
       inkscape:collect="always"
       xlink:href="#linearGradient3737-0"
       id="radialGradient3249"
       gradientUnits="userSpaceOnUse"
       gradientTransform="matrix(1.1573129,0,0,0.99590774,162.44898,8.197082)"
       cx="48"
       cy="90.171875"
       fx="48"
       fy="90.171875"
       r="42" />
    <linearGradient
       inkscape:collect="always"
       xlink:href="#linearGradient3737-1"
       id="linearGradient3252"
       gradientUnits="userSpaceOnUse"
       x1="36.357143"
       y1="6"
       x2="36.357143"
       y2="63.893143"
       gradientTransform="translate(35.71875,91.84375)" />
    <linearGradient
       inkscape:collect="always"
       xlink:href="#linearGradient3700"
       id="linearGradient3255"
       gradientUnits="userSpaceOnUse"
       x1="48"
       y1="90"
       x2="48"
       y2="5.9877172"
       gradientTransform="translate(35.71875,91.84375)" />
    <linearGradient
       gradientTransform="matrix(1.0238095,0,0,1.0119048,-1.1428571,-98.071429)"
       gradientUnits="userSpaceOnUse"
       xlink:href="#ButtonShadow-0-9"
       id="linearGradient2918-0"
       y2="90.238609"
       x2="32.251034"
       y1="6.1317081"
       x1="32.251034" />
    <linearGradient
       gradientTransform="translate(0,-97)"
       gradientUnits="userSpaceOnUse"
       xlink:href="#ButtonShadow-0-9"
       id="linearGradient3721-3"
       y2="90.238609"
       x2="32.251034"
       y1="6.1317081"
       x1="32.251034" />
    <linearGradient
       gradientTransform="matrix(1.0238095,0,0,1.0119048,-1.1428571,-98.071429)"
       gradientUnits="userSpaceOnUse"
       xlink:href="#ButtonShadow-0-9"
       id="linearGradient3725-2"
       y2="90.238609"
       x2="32.251034"
       y1="6.1317081"
       x1="32.251034" />
    <linearGradient
       gradientTransform="matrix(1.0238095,0,0,1.0119048,-1.1428571,-98.071429)"
       gradientUnits="userSpaceOnUse"
       xlink:href="#ButtonShadow-0-9"
       id="linearGradient3772-1"
       y2="90.238609"
       x2="32.251034"
       y1="6.1317081"
       x1="32.251034" />
    <linearGradient
       gradientTransform="matrix(1.0238095,0,0,1.0119048,-1.1428571,-98.071429)"
       gradientUnits="userSpaceOnUse"
       xlink:href="#ButtonShadow-0-9"
       id="linearGradient3780-7"
       y2="90.238609"
       x2="32.251034"
       y1="6.1317081"
       x1="32.251034" />
    <linearGradient
       gradientTransform="matrix(1.0058652,0,0,0.994169,100,0)"
       gradientUnits="userSpaceOnUse"
       id="ButtonShadow-0-9"
       y2="7.0165396"
       x2="45.447727"
       y1="92.539597"
       x1="45.447727">
      <stop
         offset="0"
         style="stop-color:#000000;stop-opacity:1"
         id="stop3750-8-4" />
      <stop
         offset="1"
         style="stop-color:#000000;stop-opacity:0.58823532"
         id="stop3752-5-6" />
    </linearGradient>
    <linearGradient
       gradientTransform="translate(100,0)"
       gradientUnits="userSpaceOnUse"
       xlink:href="#linearGradient2881-2"
       id="linearGradient3662-1"
       y2="5.9877172"
       x2="48"
       y1="90"
       x1="48" />
    <linearGradient
       gradientUnits="userSpaceOnUse"
       xlink:href="#linearGradient3739-2"
       id="linearGradient3746-3"
       y2="48.272732"
       x2="81"
       y1="48.272732"
       x1="15" />
    <linearGradient
       gradientTransform="translate(0,1)"
       gradientUnits="userSpaceOnUse"
       xlink:href="#linearGradient3731-7"
       id="linearGradient3664-5"
       y2="16.972879"
       x2="46.654823"
       y1="75.561722"
       x1="48.082497" />
    <linearGradient
       gradientTransform="translate(-125,0.65261)"
       gradientUnits="userSpaceOnUse"
       xlink:href="#linearGradient3697-5"
       id="linearGradient3661-0"
       y2="26.413651"
       x2="71.671646"
       y1="62.025059"
       x1="71.671646" />
    <linearGradient
       gradientUnits="userSpaceOnUse"
       xlink:href="#linearGradient3614-6"
       id="linearGradient3617-9"
       y2="5.9877172"
       x2="48"
       y1="90"
       x1="48"
       gradientTransform="translate(7,8.662058)" />
    <clipPath
       id="clipPath3613-4">
      <rect
         style="fill:#ffffff;fill-opacity:1;fill-rule:nonzero;stroke:none"
         id="rect3615-8"
         y="6"
         x="6"
         ry="6"
         rx="6"
         height="84"
         width="84" />
    </clipPath>
    <radialGradient
       gradientTransform="matrix(1.1573129,0,0,0.99590774,83.448979,-0.80286807)"
       gradientUnits="userSpaceOnUse"
       xlink:href="#linearGradient3737-05"
       id="radialGradient3619-3"
       fy="90.171875"
       fx="48"
       r="42"
       cy="90.171875"
       cx="48" />
    <linearGradient
       gradientUnits="userSpaceOnUse"
       xlink:href="#linearGradient3737-05"
       id="linearGradient3613-0"
       y2="138.66119"
       x2="48"
       y1="20.220806"
       x1="48" />
    <filter
       id="filter3794-2"
       color-interpolation-filters="sRGB"
       height="1.3839999"
       width="1.3839999"
       y="-0.192"
       x="-0.192">
      <feGaussianBlur
         stdDeviation="5.28"
         id="feGaussianBlur3796-6" />
    </filter>
    <linearGradient
       gradientUnits="userSpaceOnUse"
       xlink:href="#linearGradient3737-05"
       id="linearGradient3188-8"
       y2="63.893143"
       x2="36.357143"
       y1="6"
       x1="36.357143"
       gradientTransform="translate(91,-1)" />
    <filter
       id="filter3174-7"
       color-interpolation-filters="sRGB">
      <feGaussianBlur
         stdDeviation="1.71"
         id="feGaussianBlur3176-0" />
    </filter>
    <linearGradient
       id="linearGradient3737-05">
      <stop
         offset="0"
         style="stop-color:#ffffff;stop-opacity:1"
         id="stop3739-7" />
      <stop
         offset="1"
         style="stop-color:#ffffff;stop-opacity:0"
         id="stop3741-38" />
    </linearGradient>
    <linearGradient
       gradientTransform="scale(1.0058652,0.994169)"
       gradientUnits="userSpaceOnUse"
       id="ButtonShadow-3"
       y2="7.0165396"
       x2="45.447727"
       y1="92.539597"
       x1="45.447727">
      <stop
         offset="0"
         style="stop-color:#000000;stop-opacity:1"
         id="stop3750-4" />
      <stop
         offset="1"
         style="stop-color:#000000;stop-opacity:0.58823532"
         id="stop3752-0" />
    </linearGradient>
    <linearGradient
       id="linearGradient3614-6">
      <stop
         offset="0"
         style="stop-color:#65a31b;stop-opacity:1"
         id="stop3616-9" />
      <stop
         offset="1"
         style="stop-color:#a0de42;stop-opacity:1"
         id="stop3618-5" />
    </linearGradient>
    <linearGradient
       id="linearGradient3697-5">
      <stop
         offset="0"
         style="stop-color:#dcdcdc;stop-opacity:1"
         id="stop3699-5" />
      <stop
         offset="1"
         style="stop-color:#f0f0f0;stop-opacity:1"
         id="stop3701-6" />
    </linearGradient>
    <linearGradient
       id="linearGradient2881-2">
      <stop
         offset="0"
         style="stop-color:#3e5e8e;stop-opacity:1"
         id="stop2883-1" />
      <stop
         offset="1"
         style="stop-color:#89a4cb;stop-opacity:1"
         id="stop2885-3" />
    </linearGradient>
    <linearGradient
       id="linearGradient3731-7">
      <stop
         offset="0"
         style="stop-color:#dcdcdc;stop-opacity:1"
         id="stop3733-4" />
      <stop
         offset="0.30654153"
         style="stop-color:#ebebeb;stop-opacity:1"
         id="stop3757-6" />
      <stop
         offset="0.70706075"
         style="stop-color:#ffffff;stop-opacity:1"
         id="stop3737-7" />
      <stop
         offset="0.84501493"
         style="stop-color:#fafafa;stop-opacity:1"
         id="stop3759-1" />
      <stop
         offset="1"
         style="stop-color:#f0f0f0;stop-opacity:1"
         id="stop3735-1" />
    </linearGradient>
    <linearGradient
       id="linearGradient3739-2">
      <stop
         offset="0"
         style="stop-color:#ffffff;stop-opacity:1"
         id="stop3742-1" />
      <stop
         offset="1"
         style="stop-color:#ffffff;stop-opacity:0"
         id="stop3744-6" />
    </linearGradient>
  </defs>
  <metadata
     id="metadata2413">
    <rdf:RDF>
      <cc:Work
         rdf:about="">
        <dc:format>image/svg+xml</dc:format>
        <dc:type
           rdf:resource="http://purl.org/dc/dcmitype/StillImage" />
      </cc:Work>
    </rdf:RDF>
  </metadata>
  <g
     id="layer2"
     style="display:none">
    <rect
       width="86"
       height="85"
       rx="6"
       ry="6"
       x="5"
       y="7"
       id="rect3745"
       style="opacity:0.9;fill:url(#ButtonShadow);fill-opacity:1;fill-rule:nonzero;stroke:none;filter:url(#filter3174)" />
  </g>
  <g
     id="layer6"
     style="display:inline">
    <path
       d="m 12,-95.03125 c -5.5110903,0 -10.03125,4.52016 -10.03125,10.03125 l 0,71 c 0,5.5110902 4.5201598,10.03125 10.03125,10.03125 l 72,0 c 5.51109,0 10.03125,-4.5201597 10.03125,-10.03125 l 0,-71 c 0,-5.51109 -4.52016,-10.03125 -10.03125,-10.03125 l -72,0 z"
       transform="scale(1,-1)"
       id="path3786"
       style="opacity:0.07999998;fill:url(#linearGradient3760);fill-opacity:1;fill-rule:nonzero;stroke:none;display:inline" />
    <path
       d="m 12,-94.03125 c -4.971633,0 -9.03125,4.059617 -9.03125,9.03125 l 0,71 c 0,4.9716329 4.0596171,9.03125 9.03125,9.03125 l 72,0 c 4.971633,0 9.03125,-4.059617 9.03125,-9.03125 l 0,-71 c 0,-4.971633 -4.059617,-9.03125 -9.03125,-9.03125 l -72,0 z"
       transform="scale(1,-1)"
       id="path3778"
       style="opacity:0.1;fill:url(#linearGradient3780);fill-opacity:1;fill-rule:nonzero;stroke:none;display:inline" />
    <path
       d="m 12,-93 c -4.4091333,0 -8,3.590867 -8,8 l 0,71 c 0,4.4091333 3.5908667,8 8,8 l 72,0 c 4.409133,0 8,-3.5908667 8,-8 l 0,-71 c 0,-4.409133 -3.590867,-8 -8,-8 l -72,0 z"
       transform="scale(1,-1)"
       id="path3770"
       style="opacity:0.2;fill:url(#linearGradient3772);fill-opacity:1;fill-rule:nonzero;stroke:none;display:inline" />
    <rect
       width="86"
       height="85"
       rx="7"
       ry="7"
       x="5"
       y="-92"
       transform="scale(1,-1)"
       id="rect3723"
       style="opacity:0.3;fill:url(#linearGradient3725);fill-opacity:1;fill-rule:nonzero;stroke:none;display:inline" />
    <rect
       width="84"
       height="84"
       rx="6"
       ry="6"
       x="6"
       y="-91"
       transform="scale(1,-1)"
       id="rect3716"
       style="opacity:0.45;fill:url(#linearGradient3721);fill-opacity:1;fill-rule:nonzero;stroke:none;display:inline" />
  </g>
  <g
     transform="matrix(0.65624969,0,0,0.65624969,6.0000129,-600.61237)"
     id="layer1-1"
     inkscape:label="Layer 1">
    <path
       style="fill:#6c6c6c;fill-opacity:1"
       d="m 108,6 c -3.324,0 -6,2.676 -6,6 l 0,72 c 0,3.324 2.676,6 6,6 l 72,0 c 3.324,0 6,-2.676 6,-6 l 0,-72 c 0,-3.324 -2.676,-6 -6,-6 l -72,0 z"
       transform="matrix(1.5238102,0,0,1.5238102,-155.42865,915.21928)"
       id="rect3040"
       inkscape:connector-curvature="0" />
    <path
       style="fill:#878787;fill-opacity:1"
       d="m 108,6 c -3.324,0 -6,2.676 -6,6 l 0,72 c 0,3.324 2.676,6 6,6 l 72,0 c 3.324,0 6,-2.676 6,-6 l 0,-72 c 0,-3.324 -2.676,-6 -6,-6 l -72,0 z m -0.75,15.75 5.25,0 0,5.25 -5.25,0 0,-5.25 z m 52.5,5.25 5.25,0 0,5.25 -5.25,0 0,-5.25 z M 144,63.75 l 5.25,0 0,5.25 -5.25,0 0,-5.25 z"
       transform="matrix(1.5238102,0,0,1.5238102,-155.42865,915.21928)"
       id="rect3040-4"
       inkscape:connector-curvature="0" />
    <path
       style="fill:#79553a;fill-opacity:1"
       d="m 108,6 c -3.324,0 -6,2.676 -6,6 l 0,72 c 0,3.324 2.676,6 6,6 l 25.5,0 0,-5.25 5.25,0 0,5.25 41.25,0 c 3.324,0 6,-2.676 6,-6 l 0,-72 c 0,-3.324 -2.676,-6 -6,-6 l -72,0 z m -0.75,15.75 5.25,0 0,5.25 -5.25,0 0,-5.25 z m 52.5,5.25 5.25,0 0,5.25 -5.25,0 0,-5.25 z M 123,37.5 l 5.25,0 0,5.25 -5.25,0 0,-5.25 z m 52.5,21 5.25,0 0,5.25 -5.25,0 0,-5.25 z m -31.5,5.25 5.25,0 0,5.25 -5.25,0 0,-5.25 z"
       transform="matrix(1.5238102,0,0,1.5238102,-155.42865,915.21928)"
       id="rect3040-4-7"
       inkscape:connector-curvature="0" />
    <rect
       y="940.36218"
       x="112"
       height="8"
       width="8"
       id="rect3916"
       style="fill:#60a036;fill-opacity:1" />
    <path
       sodipodi:nodetypes="cccccccccccccccccccccccccccccccccccccccccccccccccccccccccccccccccccccccc"
       inkscape:connector-curvature="0"
       id="rect3916-5"
       d="m 24,956.36216 0,8.00002 8,0 0,-8.00002 z m 96,8.00002 0,8 8,0 0,-8 z m -120,8 0,8 8,0 0,-8 z m 56,0 0,8 16,0 0,-8 z m 24,0 0,8 16,0 0,-8 z m -64,8 0,8 16,0 0,-8 z m 80,16 0,8.00002 16,0 0,-8.00002 z m -72,8.00002 0,8 32,0 0,-8 -8,0 0,24 8,0 0,-8 -16,0 0,-16 z m 48,0 0,8 16,0 0,-8 z m 40,16 0,16 -8,0 0,-8 24,0 0,-8 z m -24,16 -24,0 0,8 16,0 0,-16 8,0 z m -64,0 0,16 -8,0 0,-8 16,0 0,-8 z"
       style="fill:#b9855c;fill-opacity:1" />
    <path
       style="fill:#509026;fill-opacity:1;stroke:none"
       d="m 108,6 c -3.324,0 -6,2.676 -6,6 l 0,9.75 5.25,0 0,-5.25 5.25,0 0,5.25 10.5,0 0,5.25 5.25,0 0,-15.75 5.25,0 0,10.5 5.25,0 0,-5.25 5.25,0 0,10.5 5.25,0 0,-5.25 5.25,0 0,5.25 5.25,0 0,-5.25 5.25,0 0,-5.25 5.25,0 0,5.25 10.5,0 0,-5.25 5.25,0 0,-4.5 c 0,-3.324 -2.676,-6 -6,-6 l -72,0 z"
       transform="matrix(1.5238102,0,0,1.5238102,-155.42865,915.21928)"
       id="path4147"
       inkscape:connector-curvature="0" />
    <g
       id="g4470">
      <path
         style="fill:#593d29;fill-opacity:1"
         d="m 128.25,11.25 0,15.75 15.75,0 0,-10.5 -5.25,0 0,5.25 -5.25,0 0,-10.5 -5.25,0 z M 144,27 l 0,5.25 -10.5,0 0,5.25 15.75,0 0,-5.25 10.5,0 0,-5.25 -5.25,0 0,-5.25 -5.25,0 0,5.25 -5.25,0 z m 15.75,0 5.25,0 0,-5.25 -5.25,0 0,5.25 z m 5.25,-5.25 5.25,0 0,-5.25 -5.25,0 0,5.25 z m 5.25,0 0,5.25 5.25,0 0,5.25 5.25,0 0,-10.5 -10.5,0 z m 10.5,0 5.25,0 0,-5.25 -5.25,0 0,5.25 z m -21,10.5 0,5.25 5.25,0 0,-5.25 -5.25,0 z M 128.25,27 123,27 l 0,5.25 5.25,0 0,-5.25 z m -5.25,0 0,-5.25 -10.5,0 0,5.25 10.5,0 z m -10.5,-5.25 0,-5.25 -5.25,0 0,5.25 5.25,0 z m -5.25,0 -5.25,0 0,5.25 5.25,0 0,-5.25 z m 0,10.5 0,5.25 5.25,0 0,-5.25 -5.25,0 z m 42,10.5 0,5.25 5.25,0 0,-5.25 -5.25,0 z m -10.5,5.25 0,5.25 5.25,0 0,-5.25 -5.25,0 z m 0,5.25 -10.5,0 0,5.25 10.5,0 0,-5.25 z M 175.5,48 l 0,5.25 5.25,0 0,-5.25 -5.25,0 z m -63,5.25 0,5.25 5.25,0 0,-5.25 -5.25,0 z m 31.5,5.25 0,5.25 5.25,0 0,-5.25 -5.25,0 z m 15.75,0 0,5.25 5.25,0 0,-5.25 -5.25,0 z m 5.25,5.25 0,5.25 5.25,0 0,-5.25 -5.25,0 z m 15.75,0 0,5.25 5.25,0 0,-5.25 -5.25,0 z m -73.5,5.25 0,5.25 5.25,0 0,-5.25 -5.25,0 z m 42,5.25 0,5.25 5.25,0 0,-5.25 -5.25,0 z m 10.5,0 0,5.25 5.25,0 0,-5.25 -5.25,0 z m -47.25,5.25 0,5.25 5.25,0 0,-5.25 -5.25,0 z m 15.75,0 0,5.25 5.25,0 0,-5.25 -5.25,0 z m 10.5,0 0,5.25 5.25,0 0,-5.25 -5.25,0 z m 42,5.25 0,5.1875 c 2.7265,-0.33445 4.85305,-2.460996 5.1875,-5.1875 l -5.1875,0 z"
         transform="matrix(1.5238102,0,0,1.5238102,-155.42866,915.21928)"
         id="rect3916-9"
         inkscape:connector-curvature="0" />
    </g>
    <path
       style="fill:#966c4a;fill-opacity:1"
       d="m 102,27 0,5.25 5.25,0 0,-5.25 -5.25,0 z m 10.5,0 0,10.5 10.5,0 0,-5.25 -5.25,0 0,-5.25 -5.25,0 z m 15.75,0 0,10.5 5.25,0 0,-10.5 -5.25,0 z m 42,0 0,5.25 5.25,0 0,-5.25 -5.25,0 z m 0,10.5 0,5.25 5.25,0 0,-5.25 -5.25,0 z m 5.25,5.25 0,5.25 10.5,0 0,-10.5 -5.25,0 0,5.25 -5.25,0 z m -52.5,0 0,5.25 5.25,0 0,5.25 5.25,0 0,-10.5 -10.5,0 z m 0,5.25 -5.25,0 0,5.25 5.25,0 0,-5.25 z m 21,-5.25 0,5.25 5.25,0 0,-5.25 -5.25,0 z m 5.25,5.25 0,5.25 10.5,0 0,-5.25 5.25,0 0,-5.25 -10.5,0 0,5.25 -5.25,0 z m -47.25,0 0,5.25 5.25,0 0,-5.25 -5.25,0 z m 5.25,5.25 0,10.5 5.25,0 0,-10.5 -5.25,0 z m 0,10.5 -5.25,0 0,5.25 5.25,0 0,-5.25 z m 73.5,-10.5 0,5.25 5.25,0 0,-5.25 -5.25,0 z m -42,5.25 0,10.5 5.25,0 0,-10.5 -5.25,0 z m 26.25,0 0,5.25 5.25,0 0,5.25 5.25,0 0,-10.5 -10.5,0 z m -47.25,5.25 0,5.25 5.25,0 0,5.25 10.5,0 0,-5.25 -5.25,0 0,-5.25 -10.5,0 z m 15.75,10.5 0,5.25 10.5,0 0,-5.25 -10.5,0 z M 117.75,69 l -5.25,0 0,5.25 5.25,0 0,-5.25 z m -5.25,5.25 -5.25,0 0,5.25 5.25,0 0,-5.25 z m -5.25,5.25 -5.25,0 0,4.5 c 0,3.071893 2.27973,5.573148 5.25,5.9375 l 0,-10.4375 z m 42,-15.75 0,5.25 10.5,0 0,-5.25 -10.5,0 z m 26.25,10.5 0,10.5 10.4375,0 C 185.9674,84.506232 186,84.252107 186,84 l 0,-9.75 -10.5,0 z m 0,10.5 -10.5,0 0,5.25 10.5,0 0,-5.25 z m -10.5,0 0,-5.25 -5.25,0 0,5.25 5.25,0 z m -47.25,0 0,5.25 10.5,0 0,-5.25 -10.5,0 z m 26.25,0 0,5.25 10.5,0 0,-5.25 -10.5,0 z"
       transform="matrix(1.5238102,0,0,1.5238102,-155.42866,915.21928)"
       id="rect3916-8"
       inkscape:connector-curvature="0" />
    <rect
       y="1028.3622"
       x="32"
       height="8"
       width="8"
       id="rect3916-0"
       style="fill:#745844;fill-opacity:1" />
    <rect
       y="948.36218"
       x="31.999996"
       height="8"
       width="8"
       id="rect3916-88"
       style="fill:#71b147;fill-opacity:1" />
    <rect
       y="940.36218"
       x="31.999996"
       height="8"
       width="8"
       id="rect3916-50"
       style="fill:#69a93f;fill-opacity:1" />
    <rect
       y="932.36218"
       x="31.999996"
       height="8"
       width="8"
       id="rect3916-81"
       style="fill:#83b253;fill-opacity:1" />
    <rect
       y="924.36218"
       x="31.999996"
       height="8"
       width="8"
       id="rect3916-7"
       style="fill:#66a63c;fill-opacity:1" />
    <rect
       y="924.36218"
       x="23.999998"
       height="8"
       width="8"
       id="rect3916-85"
       style="fill:#66a63c;fill-opacity:1" />
    <rect
       y="924.36218"
       x="15.999998"
       height="8"
       width="8"
       id="rect3916-6"
       style="fill:#73b349;fill-opacity:1" />
    <path
       style="fill:#76b64c;fill-opacity:1"
       d="m 108,6 c -0.25211,0 -0.50623,0.032598 -0.75,0.0625 l 0,5.1875 5.25,0 0,-5.25 -4.5,0 z"
       transform="matrix(1.5238102,0,0,1.5238102,-155.42866,915.21928)"
       id="rect3916-97"
       inkscape:connector-curvature="0" />
    <path
       style="fill:#74b44a;fill-opacity:1"
       d="m 107.25,6.0625 c -2.7265,0.3344503 -4.85305,2.4609955 -5.1875,5.1875 l 5.1875,0 0,-5.1875 z"
       transform="matrix(1.5238102,0,0,1.5238102,-155.42865,915.21928)"
       id="rect3916-881"
       inkscape:connector-curvature="0" />
    <path
       style="fill:#75b54b;fill-opacity:1"
       d="M 102.0625,11.25 C 102.0326,11.493768 102,11.747893 102,12 l 0,4.5 5.25,0 0,-5.25 -5.1875,0 z"
       transform="matrix(1.5238102,0,0,1.5238102,-155.42866,915.21928)"
       id="rect3916-84"
       inkscape:connector-curvature="0" />
    <rect
       y="940.36218"
       x="-1.9073486e-06"
       height="8"
       width="8"
       id="rect3916-59"
       style="fill:#8dbc5d;fill-opacity:1" />
    <rect
       y="932.36218"
       x="7.9999981"
       height="8"
       width="8"
       id="rect3916-86"
       style="fill:#6cac42;fill-opacity:1" />
    <rect
       y="932.36218"
       x="15.999998"
       height="8"
       width="8"
       id="rect3916-72"
       style="fill:#8ab95a;fill-opacity:1" />
    <rect
       y="940.36218"
       x="15.999998"
       height="8"
       width="8"
       id="rect3916-4"
       style="fill:#9ccb6c;fill-opacity:1" />
    <rect
       y="932.36218"
       x="23.999998"
       height="8"
       width="8"
       id="rect3916-51"
       style="fill:#81b051;fill-opacity:1" />
    <rect
       y="940.36218"
       x="23.999998"
       height="8"
       width="8"
       id="rect3916-3"
       style="fill:#64a43a;fill-opacity:1" />
    <rect
       y="924.36218"
       x="39.999996"
       height="8"
       width="8"
       id="rect3916-1"
       style="fill:#6faf45;fill-opacity:1" />
    <rect
       y="924.36218"
       x="47.999996"
       height="8"
       width="8"
       id="rect3916-2"
       style="fill:#5f9f35;fill-opacity:1" />
    <rect
       y="932.36218"
       x="47.999996"
       height="8"
       width="8"
       id="rect3916-26"
       style="fill:#68a83e;fill-opacity:1" />
    <rect
       y="940.36218"
       x="47.999996"
       height="8"
       width="8"
       id="rect3916-00"
       style="fill:#70b046;fill-opacity:1" />
    <rect
       y="932.36218"
       x="55.999996"
       height="8"
       width="8"
       id="rect3916-22"
       style="fill:#62a238;fill-opacity:1" />
    <rect
       y="924.36218"
       x="55.999996"
       height="8"
       width="8"
       id="rect3916-15"
       style="fill:#6cac42;fill-opacity:1" />
    <rect
       y="924.36218"
       x="64"
       height="8"
       width="8"
       id="rect3916-09"
       style="fill:#7ebe54;fill-opacity:1" />
    <rect
       y="932.36218"
       x="64"
       height="8"
       width="8"
       id="rect3916-06"
       style="fill:#5f9f35;fill-opacity:1" />
    <rect
       y="940.36218"
       x="64"
       height="8"
       width="8"
       id="rect3916-10"
       style="fill:#74b44a;fill-opacity:1" />
    <rect
       y="948.36218"
       x="64"
       height="8"
       width="8"
       id="rect3916-41"
       style="fill:#5f9f35;fill-opacity:1" />
    <rect
       y="924.36218"
       x="72"
       height="8"
       width="8"
       id="rect3916-14"
       style="fill:#76b64c;fill-opacity:1" />
    <rect
       y="932.36218"
       x="72"
       height="8"
       width="8"
       id="rect3916-77"
       style="fill:#93c263;fill-opacity:1" />
    <rect
       y="940.36218"
       x="72"
       height="8"
       width="8"
       id="rect3916-36"
       style="fill:#7fbf55;fill-opacity:1" />
    <rect
       y="924.36218"
       x="80"
       height="8"
       width="8"
       id="rect3916-33"
       style="fill:#6aaa40;fill-opacity:1" />
    <rect
       y="932.36218"
       x="80"
       height="8"
       width="8"
       id="rect3916-098"
       style="fill:#90bf60;fill-opacity:1" />
    <rect
       y="940.36218"
       x="80"
       height="8"
       width="8"
       id="rect3916-229"
       style="fill:#92c162;fill-opacity:1" />
    <rect
       y="948.36218"
       x="80"
       height="8"
       width="8"
       id="rect3916-44"
       style="fill:#6dad43;fill-opacity:1" />
    <rect
       y="940.36218"
       x="88"
       height="8"
       width="8"
       id="rect3916-867"
       style="fill:#97c667;fill-opacity:1" />
    <rect
       y="932.36218"
       x="88"
       height="8"
       width="8"
       id="rect3916-20"
       style="fill:#73b349;fill-opacity:1" />
    <rect
       y="924.36218"
       x="88"
       height="8"
       width="8"
       id="rect3916-07"
       style="fill:#67a73d;fill-opacity:1" />
    <rect
       y="924.36218"
       x="96"
       height="8"
       width="8"
       id="rect3916-01"
       style="fill:#69a93f;fill-opacity:1" />
    <rect
       y="932.36218"
       x="96"
       height="8"
       width="8"
       id="rect3916-78"
       style="fill:#61a137;fill-opacity:1" />
    <rect
       y="940.36218"
       x="104"
       height="8"
       width="8"
       id="rect3916-46"
       style="fill:#57972d;fill-opacity:1" />
    <rect
       y="932.36218"
       x="112"
       height="8"
       width="8"
       id="rect3916-19"
       style="fill:#67a73d;fill-opacity:1" />
    <rect
       y="932.36218"
       x="104"
       height="8"
       width="8"
       id="rect3916-38"
       style="fill:#6cac42;fill-opacity:1" />
    <rect
       y="924.36218"
       x="104"
       height="8"
       width="8"
       id="rect3916-411"
       style="fill:#61a137;fill-opacity:1" />
    <path
       style="fill:#6dad43;fill-opacity:1"
       d="m 180.75,6.0625 0,5.1875 5.1875,0 C 185.60305,8.5234955 183.4765,6.3969503 180.75,6.0625 z"
       transform="matrix(1.5238102,0,0,1.5238102,-155.42866,915.21928)"
       id="rect3916-74"
       inkscape:connector-curvature="0" />
    <path
       style="fill:#6bab41;fill-opacity:1"
       d="m 180.75,11.25 0,5.25 5.25,0 0,-4.5 c 0,-0.252107 -0.0326,-0.506232 -0.0625,-0.75 l -5.1875,0 z"
       transform="matrix(1.5238102,0,0,1.5238102,-155.42866,915.21928)"
       id="rect3916-27"
       inkscape:connector-curvature="0" />
  </g>
  <g
     id="g3489"
     transform="translate(-103.84375,-0.34375)">
    <g
       style="display:none"
       id="layer2-8">
      <rect
         style="opacity:0.9;fill:url(#ButtonShadow-3);fill-opacity:1;fill-rule:nonzero;stroke:none;filter:url(#filter3174-7)"
         id="rect3745-4"
         y="7"
         x="5"
         ry="6"
         rx="6"
         height="85"
         width="86" />
    </g>
    <g
       style="display:inline"
       id="layer1"
       transform="translate(12.84375,1.34375)">
      <path
         style="opacity:0.4;fill:url(#linearGradient3188-8);fill-opacity:1;fill-rule:nonzero;stroke:none"
         id="rect3728"
         inkscape:connector-curvature="0"
         d="m 103,5 c -3.324,0 -6,2.676 -6,6 l 0,2 0,68 0,2 c 0,0.334721 0.04135,0.6507 0.09375,0.96875 0.0487,0.295596 0.09704,0.596915 0.1875,0.875 0.0099,0.03038 0.02089,0.0636 0.03125,0.09375 0.09887,0.287771 0.23488,0.547452 0.375,0.8125 0.144592,0.273507 0.315616,0.535615 0.5,0.78125 0.184384,0.245635 0.373777,0.473472 0.59375,0.6875 0.439947,0.428056 0.94291,0.814526 1.5,1.09375 0.27854,0.139612 0.57347,0.246947 0.875,0.34375 -0.2562,-0.100222 -0.48671,-0.236272 -0.71875,-0.375 -0.007,-0.0044 -0.0239,0.0045 -0.0312,0 -0.0319,-0.0193 -0.0623,-0.04251 -0.0937,-0.0625 -0.1204,-0.0767 -0.23102,-0.163513 -0.34375,-0.25 -0.106173,-0.0808 -0.213281,-0.161112 -0.3125,-0.25 -0.17793,-0.161433 -0.34746,-0.345388 -0.5,-0.53125 -0.107579,-0.130255 -0.218394,-0.265285 -0.3125,-0.40625 -0.02509,-0.03838 -0.03845,-0.08587 -0.0625,-0.125 -0.06476,-0.103032 -0.130228,-0.204517 -0.1875,-0.3125 -0.101008,-0.194706 -0.205675,-0.415701 -0.28125,-0.625 -0.008,-0.02181 -0.02359,-0.04055 -0.03125,-0.0625 C 98.24953,85.5643 98.24555,85.469419 98.21885,85.375 98.188418,85.268382 98.148361,85.171969 98.125,85.0625 98.052121,84.720988 98,84.364295 98,84 l 0,-2 0,-68 0,-2 c 0,-2.781848 2.21815,-5 5,-5 l 2,0 68,0 2,0 c 2.78185,0 5,2.218152 5,5 l 0,2 0,68 0,2 c 0,0.364295 -0.0521,0.720988 -0.125,1.0625 -0.0442,0.206893 -0.0884,0.397658 -0.15625,0.59375 -0.008,0.02195 -0.0233,0.04069 -0.0312,0.0625 -0.0627,0.173739 -0.13838,0.367449 -0.21875,0.53125 -0.0416,0.0828 -0.079,0.169954 -0.125,0.25 -0.0546,0.09721 -0.12677,0.18835 -0.1875,0.28125 -0.0941,0.140965 -0.20492,0.275995 -0.3125,0.40625 -0.14317,0.17445 -0.30314,0.346998 -0.46875,0.5 -0.0112,0.0102 -0.02,0.02115 -0.0312,0.03125 -0.13839,0.125556 -0.28509,0.234436 -0.4375,0.34375 -0.10257,0.07315 -0.20432,0.153364 -0.3125,0.21875 -0.007,0.0045 -0.0238,-0.0044 -0.0312,0 -0.23204,0.138728 -0.46255,0.274778 -0.71875,0.375 0.30153,-0.0968 0.59645,-0.204138 0.875,-0.34375 0.55709,-0.279224 1.06005,-0.665694 1.5,-1.09375 0.21997,-0.214028 0.40937,-0.441865 0.59375,-0.6875 0.18438,-0.245635 0.35541,-0.507743 0.5,-0.78125 0.14012,-0.265048 0.27613,-0.524729 0.375,-0.8125 0.0104,-0.03078 0.0213,-0.06274 0.0312,-0.09375 0.0905,-0.278085 0.1388,-0.579404 0.1875,-0.875 C 180.95865,83.6507 181,83.334721 181,83 l 0,-2 0,-68 0,-2 c 0,-3.324 -2.676,-6 -6,-6 l -72,0 z" />
      <path
         style="opacity:0.2;fill:url(#radialGradient3619-3);fill-opacity:1;fill-rule:nonzero;stroke:none"
         id="path3615"
         inkscape:connector-curvature="0"
         d="m 103,89 c -3.324,0 -6,-2.676 -6,-6 l 0,-2 0,-68 0,-2 c 0,-0.334721 0.04135,-0.6507 0.09375,-0.96875 0.0487,-0.295596 0.09704,-0.596915 0.1875,-0.875 0.0099,-0.03038 0.02089,-0.0636 0.03125,-0.09375 0.09887,-0.287771 0.23488,-0.547452 0.375,-0.8125 0.144592,-0.273507 0.315616,-0.535615 0.5,-0.78125 0.184384,-0.245635 0.373777,-0.473472 0.59375,-0.6875 0.439947,-0.428056 0.94291,-0.814526 1.5,-1.09375 0.27854,-0.139612 0.57347,-0.246947 0.875,-0.34375 -0.2562,0.100222 -0.48671,0.236272 -0.71875,0.375 -0.007,0.0044 -0.0239,-0.0045 -0.0312,0 -0.0319,0.0193 -0.0623,0.04251 -0.0937,0.0625 -0.1204,0.0767 -0.23102,0.163513 -0.34375,0.25 -0.106173,0.0808 -0.213281,0.161112 -0.3125,0.25 -0.17793,0.161433 -0.34746,0.345388 -0.5,0.53125 -0.107579,0.130255 -0.218394,0.265285 -0.3125,0.40625 -0.02509,0.03838 -0.03845,0.08587 -0.0625,0.125 -0.06476,0.103032 -0.130228,0.204517 -0.1875,0.3125 -0.101008,0.194706 -0.205675,0.415701 -0.28125,0.625 -0.008,0.02181 -0.02359,0.04055 -0.03125,0.0625 C 98.24953,8.4357 98.24555,8.530581 98.21885,8.625 98.188418,8.731618 98.148361,8.828031 98.125,8.9375 98.052121,9.279012 98,9.635705 98,10 l 0,2 0,68 0,2 c 0,2.781848 2.21815,5 5,5 l 2,0 68,0 2,0 c 2.78185,0 5,-2.218152 5,-5 l 0,-2 0,-68 0,-2 c 0,-0.364295 -0.0521,-0.720988 -0.125,-1.0625 -0.0442,-0.206893 -0.0884,-0.397658 -0.15625,-0.59375 -0.008,-0.02195 -0.0233,-0.04069 -0.0312,-0.0625 -0.0627,-0.173739 -0.13838,-0.367449 -0.21875,-0.53125 -0.0416,-0.0828 -0.079,-0.169954 -0.125,-0.25 -0.0546,-0.09721 -0.12677,-0.18835 -0.1875,-0.28125 -0.0941,-0.140965 -0.20492,-0.275995 -0.3125,-0.40625 -0.14317,-0.17445 -0.30314,-0.346998 -0.46875,-0.5 -0.0112,-0.0102 -0.02,-0.02115 -0.0312,-0.03125 -0.13839,-0.125556 -0.28509,-0.234436 -0.4375,-0.34375 -0.10257,-0.07315 -0.20432,-0.153364 -0.3125,-0.21875 -0.007,-0.0045 -0.0238,0.0044 -0.0312,0 -0.23204,-0.138728 -0.46255,-0.274778 -0.71875,-0.375 0.30153,0.0968 0.59645,0.204138 0.875,0.34375 0.55709,0.279224 1.06005,0.665694 1.5,1.09375 0.21997,0.214028 0.40937,0.441865 0.59375,0.6875 0.18438,0.245635 0.35541,0.507743 0.5,0.78125 0.14012,0.265048 0.27613,0.524729 0.375,0.8125 0.0104,0.03078 0.0213,0.06274 0.0312,0.09375 0.0905,0.278085 0.1388,0.579404 0.1875,0.875 C 180.95865,10.3493 181,10.665279 181,11 l 0,2 0,68 0,2 c 0,3.324 -2.676,6 -6,6 l -72,0 z" />
    </g>
    <g
       style="display:inline"
       id="layer5"
       transform="translate(103.84375,0.34375)">
      <rect
         style="opacity:0.1;fill:url(#linearGradient3613-0);fill-opacity:1;fill-rule:nonzero;stroke:#ffffff;stroke-width:0.5;stroke-linecap:round;stroke-linejoin:miter;stroke-miterlimit:4;stroke-opacity:1;stroke-dasharray:none;stroke-dashoffset:0;filter:url(#filter3794-2)"
         id="rect3171"
         clip-path="url(#clipPath3613-4)"
         y="15"
         x="15"
         ry="12"
         rx="12"
         height="66"
         width="66" />
    </g>
  </g>
</svg>
